{
    "asset" : {
        "generator" : "Khronos glTF Blender I/O v1.4.40",
        "version" : "2.0"
    },
    "scene" : 0,
    "scenes" : [
        {
            "name" : "Scene",
            "nodes" : [
                0,
                1,
                2,
                3
            ]
        }
    ],
    "nodes" : [
        {
            "mesh" : 0,
            "name" : "BASE",
            "translation" : [
                0,
                0.009999999776482582,
                0
            ]
        },
        {
            "mesh" : 1,
            "name" : "INNER_BOT",
            "translation" : [
                0,
                0.24500000476837158,
                0
            ]
        },
        {
            "mesh" : 2,
            "name" : "INNER_TOP",
            "rotation" : [
                1,
                0,
                0,
                -4.371138828673793e-08
            ],
            "translation" : [
                0,
                0.36500000953674316,
                0
            ]
        },
        {
            "mesh" : 3,
            "name" : "SHELL",
            "translation" : [
                0,
                0.3050000071525574,
                0
            ]
        }
    ],
    "materials" : [
        {
            "doubleSided" : true,
            "name" : "BASE",
            "normalTexture" : {
                "index" : 0,
                "texCoord" : 0
            },
            "pbrMetallicRoughness" : {
                "baseColorTexture" : {
                    "index" : 1,
                    "texCoord" : 0
                },
                "metallicFactor" : 0,
                "metallicRoughnessTexture" : {
                    "index" : 2,
                    "texCoord" : 0
                }
            }
        },
        {
            "doubleSided" : true,
            "name" : "PLASTIC_INNER",
            "normalTexture" : {
                "index" : 3,
                "scale" : 0,
                "texCoord" : 0
            },
            "pbrMetallicRoughness" : {
                "baseColorTexture" : {
                    "index" : 4,
                    "texCoord" : 0
                },
                "metallicFactor" : 0,
                "metallicRoughnessTexture" : {
                    "index" : 5,
                    "texCoord" : 0
                }
            }
        },
        {
            "doubleSided" : true,
            "name" : "PLASTIC_SHELL",
            "normalTexture" : {
                "index" : 6,
                "scale" : 0,
                "texCoord" : 0
            },
            "pbrMetallicRoughness" : {
                "baseColorTexture" : {
                    "index" : 7,
                    "texCoord" : 0
                },
                "metallicFactor" : 0,
                "metallicRoughnessTexture" : {
                    "index" : 8,
                    "texCoord" : 0
                }
            }
        }
    ],
    "meshes" : [
        {
            "name" : "Cylinder.002",
            "primitives" : [
                {
                    "attributes" : {
                        "POSITION" : 0,
                        "NORMAL" : 1,
                        "TEXCOORD_0" : 2
                    },
                    "indices" : 3,
                    "material" : 0
                }
            ]
        },
        {
            "name" : "Cylinder.003",
            "primitives" : [
                {
                    "attributes" : {
                        "POSITION" : 4,
                        "NORMAL" : 5,
                        "TEXCOORD_0" : 6
                    },
                    "indices" : 7,
                    "material" : 1
                }
            ]
        },
        {
            "name" : "Cylinder.004",
            "primitives" : [
                {
                    "attributes" : {
                        "POSITION" : 8,
                        "NORMAL" : 9,
                        "TEXCOORD_0" : 10
                    },
                    "indices" : 7,
                    "material" : 1
                }
            ]
        },
        {
            "name" : "Cylinder.006",
            "primitives" : [
                {
                    "attributes" : {
                        "POSITION" : 11,
                        "NORMAL" : 12,
                        "TEXCOORD_0" : 13
                    },
                    "indices" : 14,
                    "material" : 2
                }
            ]
        }
    ],
    "textures" : [
        {
            "sampler" : 0,
            "source" : 0
        },
        {
            "sampler" : 0,
            "source" : 1
        },
        {
            "sampler" : 0,
            "source" : 2
        },
        {
            "sampler" : 0,
            "source" : 3
        },
        {
            "sampler" : 0,
            "source" : 4
        },
        {
            "sampler" : 0,
            "source" : 5
        },
        {
            "sampler" : 0,
            "source" : 3
        },
        {
            "sampler" : 0,
            "source" : 6
        },
        {
            "sampler" : 0,
            "source" : 5
        }
    ],
    "images" : [
        {
            "mimeType" : "image/jpeg",
            "name" : "Wood048_1K_NormalGL",
            "uri" : "Wood048_1K_NormalGL.jpg"
        },
        {
            "mimeType" : "image/jpeg",
            "name" : "Wood048_1K_Color (1)",
            "uri" : "Wood048_1K_Color%201.jpg"
        },
        {
            "mimeType" : "image/png",
            "name" : "Wood048_1K_Roughness",
            "uri" : "Wood048_1K_Roughness.png"
        },
        {
            "mimeType" : "image/jpeg",
            "name" : "Plastic010_1K_NormalGL",
            "uri" : "Plastic010_1K_NormalGL.jpg"
        },
        {
            "mimeType" : "image/jpeg",
            "name" : "Plastic010_1K_Color_White",
            "uri" : "Plastic010_1K_Color_White.jpg"
        },
        {
            "mimeType" : "image/png",
            "name" : "Plastic010_1K_Roughness",
            "uri" : "Plastic010_1K_Roughness.png"
        },
        {
            "mimeType" : "image/jpeg",
            "name" : "Plastic010_1K_Color_Pistache",
            "uri" : "Plastic010_1K_Color_Pistache.jpg"
        }
    ],
    "accessors" : [
        {
            "bufferView" : 0,
            "componentType" : 5126,
            "count" : 716,
            "max" : [
                0.07499999552965164,
                0.20999999344348907,
                0.07499999552965164
            ],
            "min" : [
                -0.07499999552965164,
                -0.009999999776482582,
                -0.07499999552965164
            ],
            "type" : "VEC3"
        },
        {
            "bufferView" : 1,
            "componentType" : 5126,
            "count" : 716,
            "type" : "VEC3"
        },
        {
            "bufferView" : 2,
            "componentType" : 5126,
            "count" : 716,
            "type" : "VEC2"
        },
        {
            "bufferView" : 3,
            "componentType" : 5123,
            "count" : 2292,
            "type" : "SCALAR"
        },
        {
            "bufferView" : 4,
            "componentType" : 5126,
            "count" : 386,
            "max" : [
                0.04999999701976776,
                0.02499999850988388,
                0.04999999701976776
            ],
            "min" : [
                -0.04999999701976776,
                -0.02499999850988388,
                -0.04999999701976776
            ],
            "type" : "VEC3"
        },
        {
            "bufferView" : 5,
            "componentType" : 5126,
            "count" : 386,
            "type" : "VEC3"
        },
        {
            "bufferView" : 6,
            "componentType" : 5126,
            "count" : 386,
            "type" : "VEC2"
        },
        {
            "bufferView" : 7,
            "componentType" : 5123,
            "count" : 1524,
            "type" : "SCALAR"
        },
        {
            "bufferView" : 8,
            "componentType" : 5126,
            "count" : 386,
            "max" : [
                0.04999999701976776,
                0.02499999850988388,
                0.04999999701976776
            ],
            "min" : [
                -0.04999999701976776,
                -0.02499999850988388,
                -0.04999999701976776
            ],
            "type" : "VEC3"
        },
        {
            "bufferView" : 9,
            "componentType" : 5126,
            "count" : 386,
            "type" : "VEC3"
        },
        {
            "bufferView" : 10,
            "componentType" : 5126,
            "count" : 386,
            "type" : "VEC2"
        },
        {
            "bufferView" : 11,
            "componentType" : 5126,
            "count" : 540,
            "max" : [
                0.08999999612569809,
                0.04999999701976776,
                0.08999999612569809
            ],
            "min" : [
                -0.08999999612569809,
                -0.04999999701976776,
                -0.08999999612569809
            ],
            "type" : "VEC3"
        },
        {
            "bufferView" : 12,
            "componentType" : 5126,
            "count" : 540,
            "type" : "VEC3"
        },
        {
            "bufferView" : 13,
            "componentType" : 5126,
            "count" : 540,
            "type" : "VEC2"
        },
        {
            "bufferView" : 14,
            "componentType" : 5123,
            "count" : 1536,
            "type" : "SCALAR"
        }
    ],
    "bufferViews" : [
        {
            "buffer" : 0,
            "byteLength" : 8592,
            "byteOffset" : 0
        },
        {
            "buffer" : 0,
            "byteLength" : 8592,
            "byteOffset" : 8592
        },
        {
            "buffer" : 0,
            "byteLength" : 5728,
            "byteOffset" : 17184
        },
        {
            "buffer" : 0,
            "byteLength" : 4584,
            "byteOffset" : 22912
        },
        {
            "buffer" : 0,
            "byteLength" : 4632,
            "byteOffset" : 27496
        },
        {
            "buffer" : 0,
            "byteLength" : 4632,
            "byteOffset" : 32128
        },
        {
            "buffer" : 0,
            "byteLength" : 3088,
            "byteOffset" : 36760
        },
        {
            "buffer" : 0,
            "byteLength" : 3048,
            "byteOffset" : 39848
        },
        {
            "buffer" : 0,
            "byteLength" : 4632,
            "byteOffset" : 42896
        },
        {
            "buffer" : 0,
            "byteLength" : 4632,
            "byteOffset" : 47528
        },
        {
            "buffer" : 0,
            "byteLength" : 3088,
            "byteOffset" : 52160
        },
        {
            "buffer" : 0,
            "byteLength" : 6480,
            "byteOffset" : 55248
        },
        {
            "buffer" : 0,
            "byteLength" : 6480,
            "byteOffset" : 61728
        },
        {
            "buffer" : 0,
            "byteLength" : 4320,
            "byteOffset" : 68208
        },
        {
            "buffer" : 0,
            "byteLength" : 3072,
            "byteOffset" : 72528
        }
    ],
    "samplers" : [
        {
            "magFilter" : 9729,
            "minFilter" : 9986
        }
    ],
    "buffers" : [
        {
            "byteLength" : 75600,
            "uri" : "LAMP_t3_texturedshell.bin"
        }
    ]
}
