<svg xmlns="http://www.w3.org/2000/svg" viewBox="0 0 58.66 76.08"><defs><style>.cls-1{fill:none;stroke:#F97316;stroke-miterlimit:10;stroke-width:2px;}</style></defs><g id="Layer_2" data-name="Layer 2"><g id="Layer_1-2" data-name="Layer 1"><path class="cls-1" d="M38.56,67.29a9.29,9.29,0,0,1-18.34,0Z"/><polygon class="cls-1" points="30.99 1 30.99 26.84 29.36 26.16 29.3 26.16 27.7 26.82 27.7 1 30.99 1"/><polyline class="cls-1" points="30.99 26.84 33.82 28.02 33.82 34.63"/><polyline class="cls-1" points="24.84 34.63 24.84 28.02 27.7 26.82"/><polyline class="cls-1" points="29.36 46.79 39.29 46.79 34.33 34.63 29.36 34.63 29.3 34.63 24.33 34.63 19.37 46.79 29.3 46.79 29.36 46.79"/><path class="cls-1" d="M57.65,67.29H1c-.12-4.31.71-5.21,2.63-8C6.91,54.66,14.3,46.79,19.05,46.79H39.61c4.76,0,12.14,7.87,15.42,12.55C57,62.08,57.77,63,57.65,67.29Z"/></g></g></svg>