<svg xmlns="http://www.w3.org/2000/svg" viewBox="0 0 83.54 101.51"><defs><style>.cls-1{fill:none;stroke:#F97316;stroke-miterlimit:10;stroke-width:2px;}</style></defs><g id="Layer_2" data-name="Layer 2"><g id="Layer_1-2" data-name="Layer 1"><path class="cls-1" d="M10.43,33A8.57,8.57,0,0,0,24,40L12,28A8.49,8.49,0,0,0,10.43,33Z"/><path class="cls-1" d="M59.29,96.08H65.2L78.26,58.9A4.91,4.91,0,0,1,77.1,59,5.41,5.41,0,0,1,73,57.13Z"/><rect class="cls-1" x="41.71" y="96.08" width="40.17" height="4.43"/><path class="cls-1" d="M41.35,22.65,72,51.82a5.44,5.44,0,0,1,4.51-3.62L45.41,18.59Z"/><polygon class="cls-1" points="26.11 14.47 32.05 20.42 32.09 20.46 37.82 26.18 45.41 18.59 50.88 13.12 39.17 1.41 26.11 14.47"/><path class="cls-1" d="M1.4,17.4,35.11,51.11c3-2.83,3.1-3.93,3.8-6.92,1.2-5.11,2.11-14.8-.72-17.64l-.37-.37-5.73-5.72,0,0-5.94-6L26,14.32c-2.83-2.83-12.53-1.92-17.63-.72C5.33,14.3,4.23,14.43,1.4,17.4Z"/><path class="cls-1" d="M71.67,53.6A5.44,5.44,0,0,0,77.1,59a4.91,4.91,0,0,0,1.16-.13A5.43,5.43,0,0,0,77.1,48.17c-.21,0-.41,0-.62,0A5.44,5.44,0,0,0,72,51.82,5.54,5.54,0,0,0,71.67,53.6Z"/></g></g></svg>