<svg xmlns="http://www.w3.org/2000/svg" viewBox="0 0 83.54 101.51"><defs><style>.cls-1{fill:none;stroke:#F97316;stroke-miterlimit:10;stroke-width:2px;}</style></defs><g id="Layer_2" data-name="Layer 2"><g id="Layer_1-2" data-name="Layer 1"><path class="cls-1" d="M73.1,33a8.56,8.56,0,0,1-13.54,7L71.5,28A8.48,8.48,0,0,1,73.1,33Z"/><path class="cls-1" d="M24.24,96.08h-5.9L5.27,58.9A5,5,0,0,0,6.43,59a5.43,5.43,0,0,0,4.13-1.9Z"/><rect class="cls-1" x="1.66" y="96.08" width="40.17" height="4.43"/><path class="cls-1" d="M42.18,22.65,11.57,51.82A5.45,5.45,0,0,0,7.05,48.2L38.13,18.59Z"/><polygon class="cls-1" points="57.43 14.47 51.48 20.42 51.45 20.46 45.72 26.18 38.13 18.59 32.66 13.12 44.37 1.41 57.43 14.47"/><path class="cls-1" d="M82.14,17.4,48.43,51.11c-3-2.83-3.1-3.93-3.8-6.92-1.2-5.11-2.12-14.8.71-17.64l.38-.37,5.72-5.72,0,0,6-6,.15-.15c2.83-2.83,12.53-1.92,17.64-.72C78.2,14.3,79.31,14.43,82.14,17.4Z"/><path class="cls-1" d="M11.86,53.6A5.42,5.42,0,0,1,6.43,59a5,5,0,0,1-1.16-.13A5.43,5.43,0,0,1,6.43,48.17c.21,0,.42,0,.62,0a5.45,5.45,0,0,1,4.52,3.62A5.53,5.53,0,0,1,11.86,53.6Z"/></g></g></svg>