<svg xmlns="http://www.w3.org/2000/svg" viewBox="0 0 56.98 97.48"><defs><style>.cls-1{fill:none;stroke:#F97316;stroke-miterlimit:10;stroke-width:2px;}</style></defs><g id="Layer_2" data-name="Layer 2"><g id="Layer_1-2" data-name="Layer 1"><rect class="cls-1" x="26.26" y="36.89" width="4.72" height="55.16"/><rect class="cls-1" x="13.97" y="92.05" width="29.55" height="4.43"/><path class="cls-1" d="M37.36,7.92h-18a9.3,9.3,0,0,1,18,0Z"/><polyline class="cls-1" points="23.06 31.41 24.83 36.89 25.26 36.89"/><path class="cls-1" d="M53.42,17.27C50.24,22.76,36.56,32,32,32H28.46L25,31.94a7,7,0,0,1-1.91-.34C17.43,29.89,6.37,22.13,3.56,17.27,1.69,14.05.9,13,1,7.92H56C56.09,13,55.29,14.05,53.42,17.27Z"/><polyline class="cls-1" points="31.84 36.89 32.23 36.89 34.25 31.41"/></g></g></svg>