<svg xmlns="http://www.w3.org/2000/svg" viewBox="0 0 63.6 73.81"><defs><style>.cls-1{fill:none;stroke:#F97316;stroke-miterlimit:10;stroke-width:2px;}</style></defs><g id="Layer_2" data-name="Layer 2"><g id="Layer_1-2" data-name="Layer 1"><polygon class="cls-1" points="35.02 29.3 35.02 29.75 28.43 29.75 28.43 29.31 35.02 29.3"/><path class="cls-1" d="M35,36.42v32H28.43V36A8.49,8.49,0,0,0,35,36.42Z"/><rect class="cls-1" x="11.54" y="68.38" width="40.17" height="4.43"/><path class="cls-1" d="M40.62,29.74a8.47,8.47,0,0,1-2.38,4.66,8.34,8.34,0,0,1-3.22,2A8.49,8.49,0,0,1,28.43,36a8.19,8.19,0,0,1-2.3-1.63,8.53,8.53,0,0,1-2.39-4.65H40.62Z"/><path class="cls-1" d="M62.59,29.27l-28.16,0H28.55L1,29.34c-.13-5.94.76-7.2,2.85-11C7.42,11.9,15.44,1,20.6,1h.69L31.74,1H43c5.17,0,13.2,10.85,16.77,17.3C61.82,22.07,62.72,23.33,62.59,29.27Z"/></g></g></svg>