<svg xmlns="http://www.w3.org/2000/svg" viewBox="0 0 75.73 50.94"><defs><style>.cls-1{fill:none;stroke:#F97316;stroke-miterlimit:10;stroke-width:2px;}</style></defs><g id="Layer_2" data-name="Layer 2"><g id="Layer_1-2" data-name="Layer 1"><path class="cls-1" d="M18.44,47.43a8.56,8.56,0,0,0,14.5-4.64l-16.88,0A8.47,8.47,0,0,0,18.44,47.43Z"/><polygon class="cls-1" points="32.99 23.24 32.99 18.52 33 13.53 30.41 13.53 16.45 13.51 16.44 23.22 32.99 23.24"/><path class="cls-1" d="M1,42.76l47.68,0c.1-4.1-.59-5-2.21-7.58-2.75-4.46-9-12-13-12H16.21c-4,0-10.22,7.49-13,12C1.6,37.79.91,38.65,1,42.76Z"/><path class="cls-1" d="M44.55,11.45,63.77,29.63l4.5,4.26V26l-4.5-4.25L48.05,6.88,47.9,7a4.51,4.51,0,0,1-.12.72,5.42,5.42,0,0,1-2.85,3.54A2.54,2.54,0,0,1,44.55,11.45Z"/><polygon class="cls-1" points="68.27 25.99 68.27 33.89 63.77 29.63 63.77 45.52 74.73 45.52 74.73 17.52 63.77 17.52 63.77 21.74 68.27 25.99"/><path class="cls-1" d="M33,13.53v5h.48L41,11.65a5.36,5.36,0,0,1-3.86-4.28l-6.76,6.16Z"/><path class="cls-1" d="M37.17,7.37A5.36,5.36,0,0,0,41,11.65l.16,0a5.33,5.33,0,0,0,3.36-.25,2.54,2.54,0,0,0,.38-.16,5.42,5.42,0,0,0,2.85-3.54A4.51,4.51,0,0,0,47.9,7a2.18,2.18,0,0,0,0-.44,5.43,5.43,0,0,0-10.7-1.48c-.05.21-.09.41-.12.62A5,5,0,0,0,37.17,7.37Z"/></g></g></svg>