<?xml version="1.0" standalone="no"?>
<!DOCTYPE svg PUBLIC "-//W3C//DTD SVG 20010904//EN"
 "http://www.w3.org/TR/2001/REC-SVG-20010904/DTD/svg10.dtd">
<svg version="1.0" xmlns="http://www.w3.org/2000/svg"
 width="308.000000pt" height="308.000000pt" viewBox="0 0 308.000000 308.000000"
 preserveAspectRatio="xMidYMid meet">
<metadata>
Created by potrace 1.14, written by Peter Selinger 2001-2017
</metadata>
<g transform="translate(0.000000,308.000000) scale(0.100000,-0.100000)"
fill="#000000" stroke="none">
<path d="M740 2340 c-5 -3 -9 -47 -9 -98 l1 -92 94 0 94 0 0 98 0 97 -85 1
c-47 0 -90 -3 -95 -6z"/>
<path d="M1029 2346 c-1 -1 -2 -45 -3 -98 l-2 -98 93 0 c105 0 95 -10 95 90 0
22 -1 55 -1 73 l-1 32 -90 1 c-49 0 -91 0 -91 0z"/>
<path d="M23 2059 c-14 -5 -16 -69 -15 -660 0 -360 1 -657 1 -662 1 -4 126 -6
278 -5 l277 3 1 80 c0 44 -3 87 -6 95 -6 13 -34 15 -173 14 -147 -1 -166 0
-167 15 0 9 -1 265 -1 569 0 303 -3 552 -7 553 -35 4 -175 3 -188 -2z"/>
<path d="M829 2055 c0 -5 -2 -17 -4 -25 -5 -22 -13 -69 -20 -115 -3 -22 -8
-51 -10 -65 -10 -59 -85 -519 -90 -555 -3 -22 -8 -51 -10 -65 -3 -14 -7 -41
-10 -60 -3 -19 -7 -46 -10 -60 -3 -14 -7 -41 -10 -60 -3 -19 -10 -60 -15 -90
-14 -84 -19 -111 -25 -155 -4 -22 -8 -48 -11 -57 -5 -16 4 -18 95 -18 74 0
101 3 102 13 0 6 3 23 5 37 3 14 11 66 17 115 l13 90 118 0 c98 0 119 -3 121
-15 1 -8 8 -55 15 -105 7 -49 14 -97 16 -105 1 -8 3 -18 3 -22 1 -5 48 -8 106
-8 117 0 113 -3 96 75 -5 22 -13 65 -16 95 -4 30 -8 57 -10 60 -2 4 -7 31 -20
125 -2 11 -10 65 -20 120 -9 55 -19 114 -21 130 -3 17 -9 55 -14 85 -5 30 -12
69 -14 85 -3 17 -7 44 -10 60 -3 17 -17 102 -31 190 -14 88 -28 171 -30 185
-3 14 -8 45 -11 70 -3 25 -8 47 -10 49 -9 9 -284 5 -285 -4z m155 -370 c3 -27
8 -59 10 -71 2 -12 7 -45 11 -75 3 -30 8 -61 10 -69 2 -8 7 -37 10 -65 4 -27
8 -59 10 -70 5 -39 17 -130 17 -135 1 -26 -7 -28 -91 -28 l-90 1 4 26 c3 14
12 78 21 141 8 63 17 126 19 140 2 14 11 75 19 135 9 61 18 124 20 140 2 17 5
37 6 45 3 18 15 -44 24 -115z"/>
<path d="M1463 2062 l-33 -3 0 -665 0 -664 93 0 92 0 0 480 c0 263 3 474 6
467 4 -7 9 -34 13 -62 3 -27 8 -61 10 -75 3 -14 19 -117 36 -230 40 -266 40
-261 45 -290 3 -14 7 -47 11 -75 3 -27 7 -57 9 -65 4 -24 19 -124 19 -135 1
-6 40 -11 92 -13 l91 -3 8 58 c4 32 8 67 10 78 2 11 7 40 10 65 3 25 8 52 10
60 2 8 6 38 10 65 3 28 10 75 15 105 5 30 12 78 16 105 3 28 7 57 9 65 2 8 8
51 15 95 7 44 14 87 15 96 2 9 6 38 10 65 18 140 22 79 23 -356 0 -261 1 -481
1 -487 1 -10 28 -13 100 -13 l99 0 -1 665 c0 604 -1 665 -16 666 -78 4 -256 3
-270 -3 -14 -5 -20 -22 -26 -75 -4 -37 -8 -75 -10 -83 -2 -8 -6 -37 -9 -65 -4
-27 -9 -61 -11 -75 -4 -26 -41 -295 -50 -365 -3 -22 -8 -51 -10 -65 -2 -14 -7
-45 -10 -70 -10 -84 -17 -121 -21 -117 -4 4 -24 129 -39 242 -7 60 -15 110
-21 150 -3 17 -7 46 -9 65 -6 52 -44 325 -56 400 l-10 65 -117 0 c-64 0 -132
-1 -149 -3z"/>
<path d="M2473 2062 l-23 -3 0 -665 0 -665 107 3 107 3 -1 263 c0 144 4 265 8
268 5 3 51 7 103 8 106 4 166 26 218 80 64 66 80 129 80 311 1 192 -26 279
-104 338 -63 47 -118 58 -303 60 -93 1 -180 1 -192 -1z m359 -223 c30 -30 30
-30 29 -202 -1 -110 -15 -150 -58 -164 -23 -7 -84 -9 -129 -4 -7 1 -11 65 -11
201 l0 201 71 -2 c62 -2 74 -5 98 -30z"/>
</g>
</svg>
